<?xml version="1.0" standalone="no"?><!DOCTYPE svg PUBLIC "-//W3C//DTD SVG 1.1//EN" "http://www.w3.org/Graphics/SVG/1.1/DTD/svg11.dtd"><svg t="1710904575478" class="icon" viewBox="0 0 1024 1024" version="1.1" xmlns="http://www.w3.org/2000/svg" p-id="4300" xmlns:xlink="http://www.w3.org/1999/xlink" width="200" height="200"><path d="M667.787 117.333c165.077 0 270.88 132.374 270.88 310.528 0 138.251-125.099 290.507-371.574 461.59a96.768 96.768 0 0 1-110.186 0C210.432 718.368 85.333 566.112 85.333 427.86c0-178.154 105.803-310.528 270.88-310.528 59.616 0 100.054 20.832 155.787 68.096 55.744-47.253 96.17-68.096 155.787-68.096z m0 63.147c-41.44 0-70.262 15.19-116.96 55.04-2.166 1.845-14.4 12.373-17.942 15.381a32.32 32.32 0 0 1-41.77 0c-3.542-3.018-15.776-13.536-17.942-15.381-46.698-39.85-75.52-55.04-116.96-55.04-126.026 0-206.88 100.779-206.88 246.219 0 110.901 113.526 248.544 344.299 408.128a32.352 32.352 0 0 0 36.736 0C761.141 675.253 874.667 537.6 874.667 426.699c0-145.44-80.854-246.219-206.88-246.219z" p-id="4301"></path></svg>