<?xml version="1.0" standalone="no"?><!DOCTYPE svg PUBLIC "-//W3C//DTD SVG 1.1//EN" "http://www.w3.org/Graphics/SVG/1.1/DTD/svg11.dtd"><svg class="icon" width="200px" height="165.56px" viewBox="0 0 1237 1024" version="1.1" xmlns="http://www.w3.org/2000/svg"><path d="M992 1024a32 32 0 1 1 0-64 181.333333 181.333333 0 0 0 181.333333-181.333333v-533.333334a181.333333 181.333333 0 0 0-181.333333-181.333333h-746.666667a181.333333 181.333333 0 0 0-181.333333 181.333333v533.333334A181.866667 181.866667 0 0 0 245.333333 960a32 32 0 1 1 0 64A245.333333 245.333333 0 0 1 0 778.666667v-533.333334A245.333333 245.333333 0 0 1 245.333333 0h746.666667a245.333333 245.333333 0 0 1 245.333333 245.333333v533.333334a245.333333 245.333333 0 0 1-245.333333 245.333333z" fill="#231815" /><path d="M298.666667 317.333333m37.333333 0l565.333333 0q37.333333 0 37.333334 37.333334l0 0q0 37.333333-37.333334 37.333333l-565.333333 0q-37.333333 0-37.333333-37.333333l0 0q0-37.333333 37.333333-37.333334Z" fill="#231815" /><path d="M298.666667 584m37.333333 0l565.333333 0q37.333333 0 37.333334 37.333333l0 0q0 37.333333-37.333334 37.333334l-565.333333 0q-37.333333 0-37.333333-37.333334l0 0q0-37.333333 37.333333-37.333333Z" fill="#231815" /><path d="M352 960m32 0l469.333333 0q32 0 32 32l0 0q0 32-32 32l-469.333333 0q-32 0-32-32l0 0q0-32 32-32Z" fill="#231815" /></svg>