<?xml version="1.0" standalone="no"?><!DOCTYPE svg PUBLIC "-//W3C//DTD SVG 1.1//EN" "http://www.w3.org/Graphics/SVG/1.1/DTD/svg11.dtd"><svg class="icon" width="200px" height="200.00px" viewBox="0 0 1024 1024" version="1.1" xmlns="http://www.w3.org/2000/svg"><path d="M320 810.67c-35.35 0-64 28.65-64 64s28.65 64 64 64 64-28.65 64-64-28.65-64-64-64z m599.42-550.45c-12.19-18.88-26.57-46.89-76.75-46.89H256l-10.67-56.89c-23.96-45.23-41.25-60.8-88.89-71.11H128c-21.4 0-42.67 21.37-42.67 42.67 0 21.36 21.39 42.67 42.67 42.67h21.33c12.18 0 22.78 32 24.89 35.56L245.33 640c6.11 45.68 61.07 89.64 120.89 85.33h419.56c42.63 0 93.48-31.48 99.56-71.11l53.33-320c0-24.39-6.33-54.03-19.25-74zM803.56 593.78c-2.55 9.67-13.95 42.53-35.56 46.22H384c-12.18 0-42.67 10.02-56.89-56.89l-50.04-284.44H800c20.57 0 42.67-11.89 42.67 42.67l-39.11 252.44z m-14.23 216.89c-35.35 0-64 28.65-64 64s28.65 64 64 64 64-28.65 64-64-28.65-64-64-64z" /></svg>