<?xml version="1.0" standalone="no"?><!DOCTYPE svg PUBLIC "-//W3C//DTD SVG 1.1//EN" "http://www.w3.org/Graphics/SVG/1.1/DTD/svg11.dtd"><svg class="icon" width="200px" height="200.00px" viewBox="0 0 1024 1024" version="1.1" xmlns="http://www.w3.org/2000/svg"><path d="M432 464c0 17.664 35.84 32 80 32 44.192 0 80-14.336 80-32s-35.808-32-80-32c-44.16 0-80 14.336-80 32zM300.48 366.368c-6.88 25.6 1.408 50.08 18.464 54.656 17.088 4.576 36.48-12.48 43.328-38.08 6.88-25.6-1.408-50.08-18.464-54.656-17.088-4.576-36.48 12.48-43.328 38.08z m352 16.576c6.848 25.6 26.24 42.656 43.328 38.08 17.056-4.576 25.344-29.056 18.464-54.656-6.848-25.6-26.24-42.656-43.328-38.08-17.056 4.576-25.344 29.024-18.464 54.656z m272.768-32.16a415.744 415.744 0 0 0-96.32-133.056 447.84 447.84 0 0 0-143.296-89.408A475.712 475.712 0 0 0 512 96h-1.984a476.672 476.672 0 0 0-174.496 33.344 448.384 448.384 0 0 0-142.016 89.6 411.52 411.52 0 0 0-95.2 132.608A390.528 390.528 0 0 0 64 513.92c0.32 64.448 16.896 128.416 48 185.6v141.152c0 23.584 20.608 42.72 46.016 42.72H310.08A477.728 477.728 0 0 0 510.016 928h2.08a478.4 478.4 0 0 0 172.704-31.84 448.32 448.32 0 0 0 142.816-88.416 412.128 412.128 0 0 0 96.48-131.84 389.792 389.792 0 0 0 35.936-162.048c0.288-56.544-11.52-111.424-34.816-163.04z m-578.56 209.824c54.72 31.584 109.632 47.392 164.8 47.392 55.2 0 110.496-15.84 165.824-47.488A17.856 17.856 0 0 1 704 576c0 20.48-11.52 39.264-29.76 48.544-53.984 27.456-108.064 41.184-162.24 41.184-54.176 0-108.256-13.76-162.24-41.184-18.24-9.28-29.76-28.064-29.76-48.544a17.76 17.76 0 0 1 26.624-15.36z m427.456 194.208c-70.08 62.688-163.104 97.184-262.08 97.184h-1.728a405.568 405.568 0 0 1-173.12-39.296l-8.384-4.064h-140.8v-127.168l-4.48-7.584a311.616 311.616 0 0 1-43.52-156.352c-0.384-90.048 37.696-174.592 107.616-238.272 69.792-63.68 163.104-98.88 262.784-99.264h1.696c50.016 0 98.528 8.768 144.224 26.112a374.24 374.24 0 0 1 118.976 72.256c34.304 30.976 61.312 67.2 80 107.488a306.816 306.816 0 0 1 28.928 131.68c-0.64 89.952-39.712 174.24-110.112 237.28z" fill="#0091FF" /></svg>